/* XPM */
static char * vb_32x32_xpm[] = {
"32 32 52 1",
" 	c None",
".	c #CB4343",
"+	c #CA4343",
"@	c #CB4444",
"#	c #CB4848",
"$	c #CB4747",
"%	c #C1CCCC",
"&	c #C1CBCB",
"*	c #CA5252",
"=	c #C95A5A",
"-	c #C96060",
";	c #CA5151",
">	c #CA4A4A",
",	c #C94D4D",
"'	c #C95959",
")	c #C77373",
"!	c #C96363",
"~	c #CA4C4C",
"{	c #CA4545",
"]	c #CA4444",
"^	c #CA4E4E",
"/	c #CA5454",
"(	c #C95252",
"_	c #CA5050",
":	c #CA4D4D",
"<	c #CA5353",
"[	c #CB4242",
"}	c #C95151",
"|	c #CA4F4F",
"1	c #CA4747",
"2	c #C95858",
"3	c #CB4646",
"4	c #CA4646",
"5	c #CA4848",
"6	c #C95656",
"7	c #CB4545",
"8	c #CA5555",
"9	c #CA5656",
"0	c #C95555",
"a	c #CA4B4B",
"b	c #C95F5F",
"c	c #CB4141",
"d	c #C95454",
"e	c #CB4040",
"f	c #CA5757",
"g	c #CA5959",
"h	c #C95B5B",
"i	c #C95C5C",
"j	c #CA5858",
"k	c #C86666",
"l	c #C96161",
"m	c #CA4949",
"                                ",
"                                ",
"                     .+.....+.  ",
"                     .@@@@@@@@  ",
"                      +@@@@@++  ",
"   @@@@@@+@                     ",
"   .+....++                     ",
"   ###$$###            %&       ",
"   ***=-;*;         >,'))!=~    ",
"   {{]^/+{]         ]].(_.{]    ",
"   ...:<[..         ..[}|[..    ",
"   11$;2311         4536/7].    ",
"   /88//88<       .{_98/8;      ",
"   [[[[[[[[       ]..[[[[.      ",
"   ...[[...       .[.....@      ",
"   ^|^*0^|^       |0^^|a]       ",
"   ^|^2b:|:     .]<-:^|~        ",
"   ..[~*c..     +.1/c...        ",
"   [[c~de[[     [[#8e.].        ",
"   fgghiggf   +7gghij<          ",
"   {{{{{{{{  @.@{{{{{]          ",
"   @.......  .......]]          ",
"   {{{44{{4  {{{{{{]..          ",
"   9jf-k9fl~[~fjjjf^            ",
"   [[ca*ee/>..[[[[[.            ",
"   @+.:<cc/m[[..@++@            ",
"   @@[;'^^'<|_~]@@+             ",
"       :::^^:^~                 ",
"       ........                 ",
"       +@@@@@@@                 ",
"                                ",
"                                "};
